<svg xmlns="http://www.w3.org/2000/svg" viewBox="0 0 1600 1000" role="img" aria-hidden="true">
  <defs>
    <linearGradient id="toolsBackground" x1="0" y1="0" x2="1" y2="1">
      <stop offset="0" stop-color="#16243f"/>
      <stop offset=".55" stop-color="#1d3557"/>
      <stop offset="1" stop-color="#0e2c3c"/>
    </linearGradient>
    <linearGradient id="toolsBlue" x1="0" y1="0" x2="1" y2="1">
      <stop offset="0" stop-color="#4f8fd9"/>
      <stop offset="1" stop-color="#2b6cb0"/>
    </linearGradient>
    <linearGradient id="toolsTeal" x1="0" y1="0" x2="1" y2="1">
      <stop offset="0" stop-color="#39c6c8"/>
      <stop offset="1" stop-color="#157f83"/>
    </linearGradient>
    <linearGradient id="toolsGold" x1="0" y1="0" x2="1" y2="1">
      <stop offset="0" stop-color="#f3c86d"/>
      <stop offset="1" stop-color="#d59b2f"/>
    </linearGradient>
    <filter id="toolsShadow" x="-20%" y="-20%" width="140%" height="140%">
      <feDropShadow dx="0" dy="18" stdDeviation="24" flood-color="#020814" flood-opacity=".34"/>
    </filter>
  </defs>

  <rect width="1600" height="1000" fill="url(#toolsBackground)"/>
  <g fill="none" stroke="#ffffff" stroke-opacity=".08">
    <circle cx="300" cy="190" r="215"/>
    <circle cx="1350" cy="780" r="265"/>
    <path d="M170 830C410 630 610 590 830 640s420 220 610 30"/>
  </g>
  <g fill="#ffffff" opacity=".16">
    <circle cx="215" cy="260" r="7"/>
    <circle cx="390" cy="145" r="5"/>
    <circle cx="1180" cy="215" r="6"/>
    <circle cx="1420" cy="390" r="5"/>
    <circle cx="285" cy="825" r="6"/>
    <circle cx="1085" cy="870" r="5"/>
  </g>

  <g stroke="#f3c86d" stroke-width="5" stroke-dasharray="4 18" stroke-linecap="round" opacity=".8" fill="none">
    <path d="M440 590C570 530 660 530 790 455"/>
    <path d="M905 395C1010 355 1090 355 1185 330"/>
    <path d="M1180 415C1130 520 960 610 790 645"/>
  </g>

  <g filter="url(#toolsShadow)">
    <rect x="230" y="450" width="300" height="255" rx="28" fill="url(#toolsBlue)"/>
    <g fill="none" stroke="#fff" stroke-width="15" stroke-linecap="round" stroke-linejoin="round">
      <rect x="305" y="510" width="150" height="130" rx="12"/>
      <path d="M335 510v-28M425 510v-28M305 555h150"/>
      <path d="M342 605l25 18 48-38"/>
    </g>
    <circle cx="530" cy="470" r="35" fill="#39c6c8"/>
    <path d="M518 470l10 10 18-20" fill="none" stroke="#0d2838" stroke-width="10" stroke-linecap="round" stroke-linejoin="round"/>
  </g>

  <g filter="url(#toolsShadow)">
    <rect x="680" y="330" width="300" height="255" rx="28" fill="url(#toolsTeal)"/>
    <g fill="none" stroke="#fff" stroke-width="15" stroke-linecap="round" stroke-linejoin="round">
      <path d="M775 500l25-48 25 48z"/>
      <path d="M815 495a15 15 0 1 0 15 15"/>
      <path d="M830 452v-45M790 407h80"/>
    </g>
    <rect x="745" y="510" width="170" height="30" rx="15" fill="#fff" opacity=".25"/>
    <circle cx="735" cy="370" r="35" fill="#f3c86d"/>
    <path d="M725 370h20M735 360v20" stroke="#20324d" stroke-width="10" stroke-linecap="round"/>
  </g>

  <g filter="url(#toolsShadow)">
    <rect x="1090" y="230" width="300" height="255" rx="28" fill="url(#toolsGold)"/>
    <g fill="none" stroke="#26364e" stroke-width="15" stroke-linecap="round" stroke-linejoin="round">
      <path d="M1155 430c25-55 45-70 80-75"/>
      <path d="M1195 375l38 5-15 38z"/>
      <circle cx="1290" cy="360" r="34"/>
      <path d="M1324 425c-20 25-35 25-55 5"/>
    </g>
    <rect x="1125" y="310" width="75" height="75" rx="18" fill="#fff" opacity=".25"/>
  </g>

  <g filter="url(#toolsShadow)">
    <rect x="620" y="625" width="360" height="215" rx="32" fill="#274766"/>
    <g fill="#fff">
      <circle cx="710" cy="730" r="35" opacity=".85"/>
      <circle cx="800" cy="730" r="35" opacity=".7"/>
      <circle cx="890" cy="730" r="35" opacity=".55"/>
    </g>
    <g fill="none" stroke="#274766" stroke-width="9" stroke-linecap="round">
      <path d="M723 737c8 7 15 10 25 10s17-3 25-10M783 725c8 7 15 10 25 10s17-3 25-10"/>
    </g>
    <rect x="670" y="790" width="260" height="18" rx="9" fill="#fff" opacity=".3"/>
  </g>
</svg>
